HIERARCHY
ROOT Hips
{
	OFFSET 0.000000 121.760803 0.000000
	CHANNELS 6 Xposition Yposition Zposition Xrotation Yrotation Zrotation 
	JOINT Spine
	{
		OFFSET 0.072000 7.257294 -0.789700
		CHANNELS 3 Xrotation Yrotation Zrotation
		JOINT Spine1
		{
			OFFSET 0.000000 12.508769 -0.658067
			CHANNELS 3 Xrotation Yrotation Zrotation
			JOINT Spine1_split
			{
				OFFSET 0.000000 12.508769 -0.658067
				CHANNELS 3 Xrotation Yrotation Zrotation
				JOINT Spine2
				{
					OFFSET 0.000000 12.508769 -0.658067
					CHANNELS 3 Xrotation Yrotation Zrotation
					JOINT Neck
					{
						OFFSET 0.000000 14.033295 7.520400
						CHANNELS 3 Xrotation Yrotation Zrotation
						JOINT Head
						{
							OFFSET 0.000000 8.198502 5.703100
							CHANNELS 3 Xrotation Yrotation Zrotation
							JOINT HeadTop_End
							{
								OFFSET 0.000000 17.760803 13.332701
								CHANNELS 3 Xrotation Yrotation Zrotation
								End Site
								{
									OFFSET 0.000000 0.000000 0.000000
								}
							}
						}
					}
					JOINT LeftShoulder
					{
						OFFSET 6.292450 5.785301 -0.669000
						CHANNELS 3 Xrotation Yrotation Zrotation
						JOINT LeftShoulder_split
						{
							OFFSET 6.292450 5.785301 -0.669000
							CHANNELS 3 Xrotation Yrotation Zrotation
							JOINT LeftArm
							{
								OFFSET 13.907140 -6.093903 1.965100
								CHANNELS 3 Xrotation Yrotation Zrotation
								JOINT LeftForeArm
								{
									OFFSET 34.140198 0.000000 0.000000
									CHANNELS 3 Xrotation Yrotation Zrotation
									JOINT LeftHand
									{
										OFFSET 40.960209 0.000000 0.000000
										CHANNELS 3 Xrotation Yrotation Zrotation
										JOINT LeftHandThumb1
										{
											OFFSET 10.006996 -7.170425 9.573125
											CHANNELS 3 Xrotation Yrotation Zrotation
											JOINT LeftHandThumb2
											{
												OFFSET 1.835007 -1.059448 1.059443
												CHANNELS 3 Xrotation Yrotation Zrotation
												JOINT LeftHandThumb3
												{
													OFFSET 2.112267 -1.219513 1.219518
													CHANNELS 3 Xrotation Yrotation Zrotation
													JOINT LeftHandThumb4
													{
														OFFSET 4.843811 -2.796570 2.796576
														CHANNELS 3 Xrotation Yrotation Zrotation
														End Site
														{
															OFFSET 0.000000 0.000000 0.000000
														}
													}
												}
											}
										}
										JOINT LeftHandIndex1
										{
											OFFSET 18.389847 -0.922348 4.596882
											CHANNELS 3 Xrotation Yrotation Zrotation
											JOINT LeftHandIndex2
											{
												OFFSET 4.711273 0.000000 0.000000
												CHANNELS 3 Xrotation Yrotation Zrotation
												JOINT LeftHandIndex3
												{
													OFFSET 2.886131 0.000000 0.000000
													CHANNELS 3 Xrotation Yrotation Zrotation
													JOINT LeftHandIndex4
													{
														OFFSET 6.145912 0.000000 0.000000
														CHANNELS 3 Xrotation Yrotation Zrotation
														End Site
														{
															OFFSET 0.000000 0.000000 0.000000
														}
													}
												}
											}
										}
										JOINT LeftHandMiddle1
										{
											OFFSET 18.013008 0.000000 0.000000
											CHANNELS 3 Xrotation Yrotation Zrotation
											JOINT LeftHandMiddle2
											{
												OFFSET 4.946693 0.000000 0.000000
												CHANNELS 3 Xrotation Yrotation Zrotation
												JOINT LeftHandMiddle3
												{
													OFFSET 3.342232 0.000000 0.000000
													CHANNELS 3 Xrotation Yrotation Zrotation
													JOINT LeftHandMiddle4
													{
														OFFSET 4.461754 0.000000 0.000000
														CHANNELS 3 Xrotation Yrotation Zrotation
														End Site
														{
															OFFSET 0.000000 0.000000 0.000000
														}
													}
												}
											}
										}
										JOINT LeftHandRing1
										{
											OFFSET 15.849892 -0.102921 -4.126150
											CHANNELS 3 Xrotation Yrotation Zrotation
											JOINT LeftHandRing2
											{
												OFFSET 3.527054 0.000000 0.000000
												CHANNELS 3 Xrotation Yrotation Zrotation
												JOINT LeftHandRing3
												{
													OFFSET 2.961098 0.000000 0.000000
													CHANNELS 3 Xrotation Yrotation Zrotation
													JOINT LeftHandRing4
													{
														OFFSET 4.927200 0.000000 0.000000
														CHANNELS 3 Xrotation Yrotation Zrotation
														End Site
														{
															OFFSET 0.000000 0.000000 0.000000
														}
													}
												}
											}
										}
										JOINT LeftHandPinky1
										{
											OFFSET 12.791824 -0.832031 -6.799156
											CHANNELS 3 Xrotation Yrotation Zrotation
											JOINT LeftHandPinky2
											{
												OFFSET 3.327133 0.000000 0.000000
												CHANNELS 3 Xrotation Yrotation Zrotation
												JOINT LeftHandPinky3
												{
													OFFSET 3.014900 0.000000 0.000000
													CHANNELS 3 Xrotation Yrotation Zrotation
													JOINT LeftHandPinky4
													{
														OFFSET 5.847786 0.000000 0.000000
														CHANNELS 3 Xrotation Yrotation Zrotation
														End Site
														{
															OFFSET 0.000000 0.000000 0.000000
														}
													}
												}
											}
										}
									}
								}
							}
						}
					}
					JOINT RightShoulder
					{
						OFFSET -6.292450 5.785301 -0.669000
						CHANNELS 3 Xrotation Yrotation Zrotation
						JOINT RightShoulder_split
						{
							OFFSET -6.292450 5.785301 -0.669000
							CHANNELS 3 Xrotation Yrotation Zrotation
							JOINT RightArm
							{
								OFFSET -13.907140 -6.093903 1.965100
								CHANNELS 3 Xrotation Yrotation Zrotation
								JOINT RightForeArm
								{
									OFFSET -34.140198 0.000000 0.000000
									CHANNELS 3 Xrotation Yrotation Zrotation
									JOINT RightHand
									{
										OFFSET -40.960209 0.000000 0.000000
										CHANNELS 3 Xrotation Yrotation Zrotation
										JOINT RightHandThumb1
										{
											OFFSET -10.007050 -7.170456 9.573117
											CHANNELS 3 Xrotation Yrotation Zrotation
											JOINT RightHandThumb2
											{
												OFFSET -1.835007 -1.059448 1.059443
												CHANNELS 3 Xrotation Yrotation Zrotation
												JOINT RightHandThumb3
												{
													OFFSET -2.112267 -1.219513 1.219518
													CHANNELS 3 Xrotation Yrotation Zrotation
													JOINT RightHandThumb4
													{
														OFFSET -4.843834 -2.796585 2.796590
														CHANNELS 3 Xrotation Yrotation Zrotation
														End Site
														{
															OFFSET 0.000000 0.000000 0.000000
														}
													}
												}
											}
										}
										JOINT RightHandIndex1
										{
											OFFSET -18.389870 -0.922424 4.596786
											CHANNELS 3 Xrotation Yrotation Zrotation
											JOINT RightHandIndex2
											{
												OFFSET -4.711273 0.000000 0.000000
												CHANNELS 3 Xrotation Yrotation Zrotation
												JOINT RightHandIndex3
												{
													OFFSET -2.886131 0.000000 0.000000
													CHANNELS 3 Xrotation Yrotation Zrotation
													JOINT RightHandIndex4
													{
														OFFSET -6.145920 0.000000 0.000000
														CHANNELS 3 Xrotation Yrotation Zrotation
														End Site
														{
															OFFSET 0.000000 0.000000 0.000000
														}
													}
												}
											}
										}
										JOINT RightHandMiddle1
										{
											OFFSET -18.013008 0.000000 0.000000
											CHANNELS 3 Xrotation Yrotation Zrotation
											JOINT RightHandMiddle2
											{
												OFFSET -4.946693 0.000000 0.000000
												CHANNELS 3 Xrotation Yrotation Zrotation
												JOINT RightHandMiddle3
												{
													OFFSET -3.342232 0.000000 0.000000
													CHANNELS 3 Xrotation Yrotation Zrotation
													JOINT RightHandMiddle4
													{
														OFFSET -4.461754 0.000000 0.000000
														CHANNELS 3 Xrotation Yrotation Zrotation
														End Site
														{
															OFFSET 0.000000 0.000000 0.000000
														}
													}
												}
											}
										}
										JOINT RightHandRing1
										{
											OFFSET -15.849876 -0.102936 -4.126237
											CHANNELS 3 Xrotation Yrotation Zrotation
											JOINT RightHandRing2
											{
												OFFSET -3.527054 0.000000 0.000000
												CHANNELS 3 Xrotation Yrotation Zrotation
												JOINT RightHandRing3
												{
													OFFSET -2.961098 0.000000 0.000000
													CHANNELS 3 Xrotation Yrotation Zrotation
													JOINT RightHandRing4
													{
														OFFSET -4.927200 0.000000 0.000000
														CHANNELS 3 Xrotation Yrotation Zrotation
														End Site
														{
															OFFSET 0.000000 0.000000 0.000000
														}
													}
												}
											}
										}
										JOINT RightHandPinky1
										{
											OFFSET -12.791786 -0.832077 -6.799222
											CHANNELS 3 Xrotation Yrotation Zrotation
											JOINT RightHandPinky2
											{
												OFFSET -3.327133 0.000000 0.000000
												CHANNELS 3 Xrotation Yrotation Zrotation
												JOINT RightHandPinky3
												{
													OFFSET -3.014900 0.000000 0.000000
													CHANNELS 3 Xrotation Yrotation Zrotation
													JOINT RightHandPinky4
													{
														OFFSET -5.847786 0.000000 0.000000
														CHANNELS 3 Xrotation Yrotation Zrotation
														End Site
														{
															OFFSET 0.000000 0.000000 0.000000
														}
													}
												}
											}
										}
									}
								}
							}
						}
					}
				}
			}
		}
	}
	JOINT LeftUpLeg
	{
		OFFSET 13.026900 -6.336304 -1.092800
		CHANNELS 3 Xrotation Yrotation Zrotation
		JOINT LeftLeg
		{
			OFFSET 0.524474 -46.096886 9.782700
			CHANNELS 3 Xrotation Yrotation Zrotation
			JOINT LeftFoot
			{
				OFFSET -0.524474 -53.427422 -12.948200
				CHANNELS 3 Xrotation Yrotation Zrotation
				JOINT LeftToeBase
				{
					OFFSET 0.192200 -14.009700 16.364100
					CHANNELS 3 Xrotation Yrotation Zrotation
					JOINT LeftToe_End
					{
						OFFSET -1.784700 -0.561700 9.474800
						CHANNELS 3 Xrotation Yrotation Zrotation
						End Site
						{
							OFFSET 0.000000 0.000000 0.000000
						}
					}
				}
			}
		}
	}
	JOINT RightUpLeg
	{
		OFFSET -12.883000 -6.336304 -1.092800
		CHANNELS 3 Xrotation Yrotation Zrotation
		JOINT RightLeg
		{
			OFFSET -0.524587 -46.096825 9.782800
			CHANNELS 3 Xrotation Yrotation Zrotation
			JOINT RightFoot
			{
				OFFSET 0.524587 -53.427383 -12.948300
				CHANNELS 3 Xrotation Yrotation Zrotation
				JOINT RightToeBase
				{
					OFFSET -0.192200 -14.009700 16.364100
					CHANNELS 3 Xrotation Yrotation Zrotation
					JOINT RightToe_End
					{
						OFFSET 1.784700 -0.561700 9.474800
						CHANNELS 3 Xrotation Yrotation Zrotation
						End Site
						{
							OFFSET 0.000000 0.000000 0.000000
						}
					}
				}
			}
		}
	}
}
MOTION
Frames: 5
Frame Time: 0.016667
0.742383 114.762260 2.432893 -5.336600 -7.807295 5.585736 0.564516 1.075122 -2.788088 0.947293 2.037201 -4.377105 0.000000 0.000000 0.000000 0.968933 2.043659 -4.365421 2.884317 1.135687 4.005908 7.888285 9.350191 8.465891 -0.000000 -0.000001 0.000000 1.058071 -0.340530 -4.891288 0.000000 0.000000 0.000000 -16.372109 12.814409 -32.934014 0.000003 -24.507081 0.000011 42.987602 -10.562025 -4.600068 -1.540042 3.690197 6.142358 3.946762 7.971404 0.752848 -0.575595 1.586245 2.542369 0.000002 0.000001 -0.000000 0.000002 0.000009 0.000004 -0.000004 0.000002 -0.000003 0.000006 0.000001 0.000002 -0.000001 -0.000004 0.000000 -0.000001 -0.001916 0.015978 0.000001 0.001912 -0.015989 -0.000001 0.000011 0.000005 0.000001 -0.000003 0.000003 0.000001 0.000004 0.000004 -0.000002 0.000005 -0.000003 0.000001 0.000008 0.000004 0.000000 -0.000002 -0.000005 -0.018089 4.054253 0.511075 -0.018089 -4.054251 -0.511071 0.000004 -0.000011 -0.000001 0.000000 -0.000002 0.000001 0.199128 -5.464830 5.846318 0.000000 0.000000 0.000000 -40.201209 28.677464 7.199772 -0.000012 4.457077 -0.000003 36.569027 21.327740 -11.047051 -1.908788 1.147440 -8.502738 4.645029 -8.656805 -0.231322 -1.269826 0.126059 -2.098688 0.000000 0.000001 0.000001 0.007126 0.315396 -2.588947 -0.000001 0.000014 0.000006 0.000005 -0.000019 0.000007 0.000000 0.000003 0.000002 0.007126 0.315393 -2.588946 -0.000002 0.000003 0.000007 0.000003 0.000002 -0.000001 0.000000 0.000002 -0.000003 0.007125 0.315404 -2.588949 -0.000004 0.000002 0.000050 -0.000001 -0.000001 0.000008 -0.000000 0.000002 0.000002 0.007126 0.315396 -2.588952 -0.000000 0.000006 0.000007 -0.000002 0.000001 0.000008 -0.000001 -0.000002 -0.000002 -27.194127 6.716656 11.527560 21.381784 8.473138 0.751121 30.413026 8.957810 0.777170 -6.098029 -0.000005 -0.000006 -0.000001 0.000000 -0.000001 -9.067074 -8.410548 13.305506 18.450062 -9.761244 -0.928025 -7.525531 -14.374056 -20.547361 -3.611934 -0.000017 -0.000005 0.000000 -0.000002 0.000000 
0.552352 114.780785 3.687911 -5.486160 -10.709077 6.199425 0.693998 1.262621 -3.142689 1.150021 2.492869 -4.561967 0.000000 0.000000 0.000000 1.175539 2.502169 -4.546986 2.728370 1.302014 3.879432 7.459738 10.036895 8.266649 0.000001 0.000000 -0.000000 0.919751 0.306315 -3.868007 0.000000 0.000000 0.000000 -17.993281 11.628148 -29.784146 0.000005 -26.012422 0.000013 42.448820 -8.511036 -6.736299 -1.540043 3.690198 6.142355 3.946763 7.971410 0.752850 -0.575595 1.586242 2.542369 -0.000001 -0.000000 -0.000001 0.000001 0.000015 0.000002 0.000000 -0.000003 -0.000006 0.000007 0.000006 0.000002 -0.000000 -0.000002 -0.000001 0.000001 -0.001916 0.015979 0.000001 0.001915 -0.015984 -0.000004 0.000008 0.000007 -0.000001 -0.000006 -0.000001 0.000002 0.000008 0.000003 -0.000001 0.000006 -0.000009 0.000001 0.000007 0.000011 -0.000001 -0.000003 0.000002 -0.018088 4.054254 0.511071 -0.018094 -4.054251 -0.511072 0.000003 -0.000011 0.000001 -0.000000 0.000003 0.000003 0.206929 -5.347462 5.805464 0.000000 0.000000 0.000000 -41.452384 31.404103 7.845451 0.000012 4.254780 0.000003 36.426652 17.698518 -11.018017 -1.940989 0.213046 -8.122632 4.645032 -8.656802 -0.231321 -1.269825 0.126065 -2.098689 0.000000 -0.000002 0.000002 0.004593 0.253148 -2.077729 0.000001 0.000017 0.000005 -0.000001 -0.000013 0.000010 0.000000 -0.000008 0.000001 0.004591 0.253155 -2.077733 -0.000001 0.000001 0.000012 0.000002 0.000001 -0.000001 0.000001 0.000005 0.000001 0.004592 0.253154 -2.077731 0.000000 0.000002 0.000049 -0.000001 -0.000000 0.000006 0.000000 -0.000001 -0.000004 0.004595 0.253155 -2.077735 -0.000001 0.000007 0.000011 0.000000 0.000002 0.000007 0.000003 -0.000003 -0.000001 -28.784087 6.815915 9.736080 22.218597 8.557200 0.742218 30.633316 7.753228 -1.602777 -4.220387 0.000005 -0.000008 -0.000000 -0.000000 0.000000 -8.221835 -8.167706 12.578938 19.705973 -9.666573 -0.856568 -8.369160 -12.891665 -19.222973 -3.850630 0.000001 -0.000001 -0.000000 0.000001 0.000000 
0.336946 114.789238 4.926765 -5.639420 -13.611270 6.754858 0.823646 1.455057 -3.481148 1.350766 2.961712 -4.730877 0.000000 0.000000 0.000000 1.379869 2.974013 -4.712206 2.584064 1.463159 3.751656 7.038276 10.696999 8.064928 -0.000000 0.000000 0.000001 0.757068 0.956893 -2.838910 0.000000 0.000000 0.000000 -19.446293 10.332251 -26.706627 0.000008 -27.039604 0.000002 42.214155 -6.536494 -9.326108 -1.540043 3.690200 6.142356 3.946762 7.971408 0.752847 -0.575598 1.586240 2.542364 -0.000000 -0.000001 0.000000 0.000002 0.000014 0.000007 -0.000001 0.000001 -0.000003 0.000003 0.000006 0.000005 0.000000 0.000001 0.000001 -0.000001 -0.001912 0.015982 0.000003 0.001910 -0.015987 -0.000002 0.000013 0.000004 0.000001 -0.000002 0.000003 0.000002 0.000008 0.000006 -0.000000 0.000004 -0.000004 0.000002 0.000009 0.000010 0.000001 0.000000 -0.000001 -0.018089 4.054255 0.511074 -0.018091 -4.054250 -0.511074 0.000004 -0.000010 -0.000003 -0.000000 -0.000005 0.000000 0.212557 -5.231001 5.754126 0.000000 0.000000 0.000000 -42.739523 34.146516 8.566004 0.000003 4.063299 -0.000005 36.307909 13.991140 -11.057206 -1.951453 -0.743605 -7.734744 4.645030 -8.656799 -0.231322 -1.269829 0.126061 -2.098689 -0.000002 0.000000 -0.000000 0.002569 0.189409 -1.554385 -0.000004 0.000016 0.000008 0.000001 -0.000013 0.000007 0.000002 0.000002 0.000003 0.002570 0.189412 -1.554386 0.000001 0.000004 0.000009 0.000003 0.000003 0.000003 -0.000001 -0.000000 0.000001 0.002568 0.189411 -1.554386 -0.000002 -0.000000 0.000050 -0.000000 -0.000003 0.000008 -0.000001 0.000001 -0.000002 0.002567 0.189406 -1.554380 0.000000 0.000003 0.000015 0.000002 -0.000000 0.000006 0.000001 0.000003 -0.000001 -30.264964 7.054384 7.826277 23.086714 8.679799 0.746925 30.960291 6.801638 -3.955383 -1.953727 0.000001 0.000003 -0.000000 0.000001 0.000000 -7.409477 -7.951813 11.798841 21.046183 -9.572482 -0.780943 -9.220337 -11.468930 -17.812160 -4.090873 -0.000009 -0.000005 -0.000000 -0.000000 -0.000000 
0.079945 114.790138 6.138296 -5.807828 -16.459800 7.218724 0.954277 1.661464 -3.786430 1.552684 3.454291 -4.875776 0.000000 0.000000 0.000000 1.585065 3.469684 -4.853021 2.463897 1.609705 3.624302 6.649701 11.284551 7.868931 0.000000 -0.000000 0.000000 0.574223 1.603290 -1.815878 0.000000 0.000000 0.000000 -20.697785 9.000523 -23.723487 0.000002 -27.489802 0.000003 42.273004 -4.912411 -12.211366 -1.540042 3.690199 6.142357 3.946762 7.971406 0.752853 -0.575595 1.586242 2.542365 -0.000002 0.000001 0.000001 0.000000 0.000013 0.000004 -0.000001 -0.000001 -0.000004 0.000003 0.000007 0.000008 -0.000000 0.000003 0.000001 -0.000001 -0.001916 0.015980 0.000002 0.001916 -0.015988 -0.000003 0.000009 0.000003 0.000000 -0.000001 0.000004 0.000002 0.000006 0.000002 -0.000002 0.000001 -0.000009 0.000003 0.000008 0.000004 -0.000001 0.000001 -0.000002 -0.018089 4.054254 0.511070 -0.018093 -4.054247 -0.511073 0.000002 -0.000012 0.000000 0.000001 0.000002 0.000003 0.215349 -5.122706 5.672776 0.000000 0.000000 0.000000 -43.983983 36.850144 9.221139 0.000011 3.892972 0.000001 35.960632 10.271126 -10.808897 -1.940593 -1.643843 -7.370413 4.645030 -8.656805 -0.231322 -1.269827 0.126057 -2.098686 0.000001 -0.000004 0.000006 0.001202 0.129390 -1.061767 -0.000003 0.000016 0.000003 -0.000000 -0.000014 0.000010 0.000000 -0.000003 -0.000000 0.001201 0.129392 -1.061772 -0.000002 0.000006 0.000008 -0.000001 0.000002 -0.000004 -0.000002 -0.000001 -0.000003 0.001198 0.129399 -1.061774 -0.000004 0.000001 0.000051 -0.000001 -0.000001 0.000008 0.000001 -0.000001 0.000002 0.001198 0.129394 -1.061772 -0.000002 0.000007 0.000008 0.000002 0.000001 0.000001 -0.000001 0.000001 -0.000002 -31.669975 7.426415 5.822036 23.948875 8.838330 0.769441 31.490396 6.208824 -6.243367 -0.678839 -0.000003 0.000001 0.000001 0.000001 -0.000000 -6.591107 -7.774366 11.015206 22.392258 -9.478767 -0.706304 -10.034348 -10.139759 -16.361052 -4.247168 0.000025 0.000007 -0.000000 -0.000001 0.000000 
-0.304279 114.808464 7.280573 -6.016983 -19.157058 7.459508 1.099000 1.915026 -4.036382 1.780584 4.029427 -4.976537 0.000000 0.000000 0.000000 1.816225 4.047996 -4.948808 2.395714 1.711541 3.497553 6.360600 11.646650 7.705536 0.000001 -0.000000 0.000001 0.374557 2.240369 -0.806797 0.000000 0.000000 0.000000 -21.745717 7.692717 -20.829160 0.000010 -27.338011 0.000006 42.560504 -3.851470 -15.231563 -1.540044 3.690201 6.142359 3.946761 7.971404 0.752852 -0.575595 1.586240 2.542363 0.000001 -0.000001 0.000004 -0.000001 0.000015 0.000006 -0.000001 0.000000 -0.000007 0.000003 0.000005 0.000006 0.000003 -0.000001 -0.000001 -0.000002 -0.001912 0.015983 0.000001 0.001912 -0.015988 -0.000002 0.000007 0.000008 -0.000000 -0.000001 0.000001 0.000000 0.000007 0.000004 -0.000004 0.000004 -0.000005 0.000003 0.000011 0.000008 0.000001 0.000003 -0.000001 -0.018089 4.054256 0.511073 -0.018091 -4.054252 -0.511073 0.000003 -0.000009 -0.000003 -0.000000 0.000001 -0.000001 0.214940 -5.027857 5.548213 0.000000 0.000000 0.000000 -45.098182 39.487728 9.681372 0.000007 3.811689 -0.000000 35.292516 6.579508 -9.972272 -1.915016 -2.423508 -7.055057 4.645034 -8.656802 -0.231323 -1.269827 0.126061 -2.098686 0.000001 -0.000000 -0.000000 0.000430 0.077371 -0.634885 -0.000001 0.000016 0.000003 -0.000004 -0.000009 0.000007 0.000001 -0.000002 0.000003 0.000429 0.077373 -0.634888 -0.000001 0.000003 0.000009 0.000000 0.000003 0.000002 -0.000002 -0.000002 0.000003 0.000432 0.077367 -0.634880 -0.000002 -0.000003 0.000052 -0.000001 0.000001 0.000008 0.000000 0.000002 -0.000001 0.000430 0.077369 -0.634884 -0.000002 0.000005 0.000010 -0.000001 0.000001 0.000005 -0.000002 0.000003 0.000003 -33.104301 7.994672 3.732400 24.683913 9.048774 0.824508 32.530675 6.338956 -8.458166 -0.420298 -0.000004 0.000002 0.000002 -0.000000 0.000000 -5.616599 -7.742206 10.414713 23.501566 -9.383897 -0.635962 -10.596938 -9.008720 -15.010007 -4.488559 0.000013 0.000006 -0.000000 -0.000002 0.000000 
